<svg height="464pt" viewBox="0 0 464 464.00058" width="464pt" xmlns="http://www.w3.org/2000/svg"><path d="m239.199219 0c49.042969 0 88.800781 39.757812 88.800781 88.800781v143.199219h-168v-32h16c8.835938 0 16-7.164062 16-16s-7.164062-16-16-16h-16v-24h-24l16.550781-74.480469c9.035157-40.609375 45.046875-69.503906 86.648438-69.519531zm0 0" fill="#d64740"/><path d="m152.550781 69.519531c5.636719-25.464843 22.195313-47.15625 45.269531-59.304687 23.078126-12.152344 50.332032-13.53125 74.515626-3.765625-27.359376 9.191406-56.335938 30.878906-56.335938 81.550781v144h-56v-32h16c8.835938 0 16-7.164062 16-16s-7.164062-16-16-16h-16v-24h-24zm0 0" fill="#e3584b"/><path d="m232 104c0 8.835938-7.164062 16-16 16s-16-7.164062-16-16 7.164062-16 16-16 16 7.164062 16 16zm0 0" fill="#75462e"/><path d="m88.800781 176c-49.042969 0-88.800781 39.757812-88.800781 88.800781v143.199219h168v-32h-16c-8.835938 0-16-7.164062-16-16s7.164062-16 16-16h16v-24h24l-16.550781-74.480469c-9.035157-40.609375-45.046875-69.503906-86.648438-69.519531zm0 0" fill="#4398d1"/><path d="m175.449219 245.519531c-5.636719-25.464843-22.195313-47.15625-45.269531-59.304687-23.078126-12.152344-50.332032-13.53125-74.515626-3.765625 27.359376 9.191406 56.335938 30.878906 56.335938 81.550781v144h56v-32h-16c-8.835938 0-16-7.164062-16-16s7.164062-16 16-16h16v-24h24zm0 0" fill="#3e8cc7"/><path d="m128 280c0 8.835938-7.164062 16-16 16s-16-7.164062-16-16 7.164062-16 16-16 16 7.164062 16 16zm0 0" fill="#126099"/><path d="m440 408h-168v-143.199219c0-49.042969 39.757812-88.800781 88.800781-88.800781 41.605469.007812 77.628907 28.90625 86.664063 69.519531l16.535156 74.480469h-24zm0 0" fill="#ffc24f"/><path d="m447.449219 245.519531c-5.636719-25.464843-22.195313-47.15625-45.269531-59.304687-23.078126-12.152344-50.332032-13.53125-74.515626-3.765625 27.359376 9.191406 56.335938 30.878906 56.335938 81.550781v144h56v-88h24zm0 0" fill="#fdb62f"/><path d="m400 280c0 8.835938-7.164062 16-16 16s-16-7.164062-16-16 7.164062-16 16-16 16 7.164062 16 16zm0 0" fill="#fd882f"/><path d="m400 344h40v16h-40zm0 0" fill="#fd882f"/><g fill="#87ced9"><path d="m202.34375 266.339844 16-15.996094 11.3125 11.3125-15.996094 15.996094zm0 0"/><path d="m216 296h24v16h-24zm0 0"/><path d="m80 136h24v16h-24zm0 0"/><path d="m83.558594 102.660156 8.875-13.3125 24.003906 16-8.875 13.3125zm0 0"/></g><path d="m320 336c-8.835938 0-16 7.164062-16 16 0-8.835938-7.164062-16-16-16s-16 7.164062-16 16c0-8.835938-7.164062-16-16-16s-16 7.164062-16 16c0-8.835938-7.164062-16-16-16s-16 7.164062-16 16v80l-27.925781-16.757812c-6.875-4.09375-15.761719-1.96875-20.035157 4.792968-4.277343 6.761719-2.394531 15.699219 4.25 20.15625l35.710938 23.808594h136v-112c0-8.835938-7.164062-16-16-16zm0 0" fill="#4398d1"/><path d="m240 408c-4.417969 0-8-3.582031-8-8v-48c0-4.417969 3.582031-8 8-8s8 3.582031 8 8v48c0 4.417969-3.582031 8-8 8zm0 0" fill="#126099"/><path d="m272 408c-4.417969 0-8-3.582031-8-8v-48c0-4.417969 3.582031-8 8-8s8 3.582031 8 8v48c0 4.417969-3.582031 8-8 8zm0 0" fill="#126099"/><path d="m304 408c-4.417969 0-8-3.582031-8-8v-48c0-4.417969 3.582031-8 8-8s8 3.582031 8 8v48c0 4.417969-3.582031 8-8 8zm0 0" fill="#126099"/></svg>