<?xml version="1.0" encoding="utf-8"?>
<!-- Generator: Adobe Illustrator 18.0.0, SVG Export Plug-In . SVG Version: 6.00 Build 0)  -->
<!DOCTYPE svg PUBLIC "-//W3C//DTD SVG 1.1//EN" "http://www.w3.org/Graphics/SVG/1.1/DTD/svg11.dtd">
<svg version="1.1" id="Layer_1" xmlns="http://www.w3.org/2000/svg" xmlns:xlink="http://www.w3.org/1999/xlink" x="0px" y="0px"
	 width="595.3px" height="595.3px" viewBox="0 0 595.3 595.3" enable-background="new 0 0 595.3 595.3" xml:space="preserve">
<path fill="#3F448F" d="M561.6,211.8c-2.6-13.6-11.1-23.8-21.7-32c-7.8-6-19.1-11.8-22.5-21.7c-2.1-6.1,0.2-12.6,2.1-18.4
	c2.4-7.4,4.9-14.5,5.3-22.3c0.8-13.6-6.9-26.5-16.6-35.4c-11.2-10.4-25.4-14.8-40.3-16.8c-31.4-4.1-65.6,9.5-95.4-5
	c-13.4-6.5-24.4-17-37-24.9c-12.7-7.9-27.3-11.9-42.2-12.1c-14.7-0.2-29.5,4.2-41.9,11.9c-11.4,7-20.6,16.8-31.4,24.6
	c-11,8-22.3,11.5-35.8,8.4c-14.8-3.4-27.9-11.6-42.7-15.1c-12.8-3.1-26.8-2.9-38.3,4c-13.1,7.9-17.5,23.3-21,37.2
	c-4.2,16.5-8.6,32.9-12.6,49.5C67,155.1,65,166.6,65,178.2c0,9.6-3.8,18.8-10.7,25.5c-0.1,0.1-0.2,0.2-0.3,0.3
	c-9.6,9.6-18.1,21.1-20.9,34.6c-2.4,11.6,0.1,23.3,5.8,33.5c10.6,19,30.4,30.9,44.4,47.1c7,8,11.5,17.5,11.9,28.3
	c0.4,13.1-5.2,26-10.1,38C80,398.2,74.4,411,72.3,424.8c-2.1,13.8,0.2,27,5.8,39.7c11.5,26,37.5,40.9,65.3,41.5
	c29.3,0.6,58.5-14,87.7-6.8c24.7,6.1,42.2,28.2,61.6,43.1c10.6,8.2,22,15,35.1,18.6c13.3,3.6,27.4,3.4,40.8,0.5
	c13.4-2.9,25.8-9.4,36.3-18.2c9.9-8.3,17.1-19.5,25.1-29.4c7.7-9.6,16.3-18,28.7-20.5c13.1-2.6,26.8,0.4,40.1-1.8
	c13.9-2.3,23.9-12.2,28.3-25.2c4.6-13.7,1.3-28.4-0.1-42.3c-0.8-7.6-0.7-14.9,1.9-22.2c2-5.8,6.9-10.8,10.8-15.3
	c9.6-10.9,17.3-21.2,18.9-36c1.7-15.7-5.6-30.9-7.5-46.2c-2-16.8,4-33.3,8-49.4C562.7,240.8,564.4,226.3,561.6,211.8z"/>
<g>
	<path fill="#292C5D" d="M502.1,479.7c5.6-12.7,3.8-27.2,3.7-40.6c-0.1-7.4,0.7-14.4,3.8-21.1c2.5-5.4,7.6-9.7,11.8-13.7
		c10.1-9.6,18.5-18.8,21.3-32.9c3-14.9-2.6-30.1-3-44.9c-0.5-16.3,6.8-31.6,12.1-46.6c4.7-13.3,7.6-27,6.3-41.1
		c-1.3-13.2-8.5-23.8-18-32.6c-6.9-6.4-17.2-13-19.6-22.8c-1.4-5.5,0.8-11,3-16.1c-2.7-2.7-4.9-5.6-6.1-9.1
		c-2.1-6.1,0.2-12.6,2.1-18.4c2.4-7.2,4.7-14.2,5.2-21.8c-1.9-3.1-4-5.9-6.3-8.5c-9.8-10.9-23.1-16.5-37.1-19.7
		c-29.7-6.7-63.7,3.2-91-13.3c-9.1-5.6-16.8-13.1-24.9-20.2c-7-4.3-13.4-9.4-20-14.2c-8.6-4.4-18-7-27.7-8
		c-14.1-1.5-28.6,1.4-41.3,7.6c-11.5,5.7-21.3,14.2-32.3,20.8c-11.2,6.7-22.4,9-35,4.9c-0.5-0.2-1.1-0.4-1.6-0.6
		c-7.2,2.7-14.7,3.3-23.1,1.4c-14.8-3.4-27.9-11.6-42.7-15.1c-4-1-8.2-1.6-12.4-1.8c-11.1,7-16.1,20.1-20.4,32
		c-5.5,15.4-11.2,30.8-16.5,46.3c-3.7,10.7-6.6,21.5-7.6,32.6c-0.9,9.2-5.3,17.7-12.5,23.5c-0.1,0.1-0.2,0.2-0.3,0.3
		c-10.1,8.3-19.2,18.6-23.1,31.3c-3.3,10.9-2,22.3,2.6,32.6c8.5,19.2,26.4,32.4,38.4,49.1c6,8.3,9.5,17.8,8.9,28.2
		c-0.3,5.6-1.8,11-3.8,16.3c0.2,1.3,0.3,2.6,0.3,4c0.4,13.1-5.2,26-10.1,38C80,398.2,74.4,411,72.3,424.8c-0.6,4.2-0.9,8.3-0.7,12.3
		c0.1,0.3,0.2,0.5,0.3,0.8c8.7,25.9,32.3,42.6,58.9,45.6c28,3.2,57.3-8.2,84.7,1.3c11.1,3.8,20.2,11.1,28.7,19.3
		c18.2,9.1,32.8,26,48.5,38.2c6.8,5.3,13.9,9.9,21.6,13.5c9,1.8,18.4,1.9,27.5,0.9c13.1-1.5,25.6-6.7,36.4-14.2
		c10.3-7,18.1-17.1,26.7-26c8.3-8.5,17.2-15.8,29.4-17.1c3.5-0.4,6.9-0.3,10.4-0.1c4.1-2.8,8.7-5,14.1-6c11.4-2.3,23.2-0.3,34.8-1.2
		C497.1,488.7,500,484.5,502.1,479.7z"/>
</g>
<g>
	<g>
		<circle fill="#5C47B0" cx="413.4" cy="468" r="5.7"/>
	</g>
	<g>
		<circle fill="#5C47B0" cx="357.7" cy="462.4" r="3.9"/>
	</g>
	<g>
		<circle fill="#5C47B0" cx="472.9" cy="168.5" r="6.1"/>
	</g>
	<g>
		<circle fill="#5C47B0" cx="295.5" cy="267.2" r="3"/>
	</g>
	<g>
		<circle fill="#5C47B0" cx="309.6" cy="113.7" r="6.7"/>
	</g>
	<g>
		<circle fill="#5C47B0" cx="198" cy="139" r="3"/>
	</g>
	<g>
		<circle fill="#5C47B0" cx="282.5" cy="213" r="5.2"/>
	</g>
	<g>
		<circle fill="#5C47B0" cx="308.4" cy="469.9" r="5"/>
	</g>
	<g>
		<circle fill="#5C47B0" cx="102.8" cy="404" r="3.7"/>
	</g>
	<g>
		<circle fill="#5C47B0" cx="440.1" cy="191.7" r="5.6"/>
	</g>
	<g>
		<circle fill="#5C47B0" cx="222.6" cy="321.7" r="4.6"/>
	</g>
	<g>
		<circle fill="#5C47B0" cx="175.2" cy="193.3" r="6.2"/>
	</g>
	<g>
		<circle fill="#5C47B0" cx="183.4" cy="234.3" r="5.5"/>
	</g>
	<g>
		<circle fill="#5C47B0" cx="142.2" cy="226.9" r="3.7"/>
	</g>
	<g>
		<circle fill="#5C47B0" cx="245.6" cy="451.2" r="4.7"/>
	</g>
	<g>
		<circle fill="#5C47B0" cx="138.1" cy="281.9" r="3.8"/>
	</g>
	<g>
		<circle fill="#5C47B0" cx="81.6" cy="304.7" r="4.3"/>
	</g>
	<g>
		<circle fill="#5C47B0" cx="144.4" cy="321.4" r="4"/>
	</g>
	<g>
		<circle fill="#5C47B0" cx="91.1" cy="259.6" r="5.5"/>
	</g>
	<g>
		<circle fill="#5C47B0" cx="205.7" cy="339.8" r="3.4"/>
	</g>
	<g>
		<circle fill="#5C47B0" cx="147.5" cy="383.8" r="6.3"/>
	</g>
	<g>
		<circle fill="#5C47B0" cx="198" cy="428.9" r="4.9"/>
	</g>
	<g>
		<circle fill="#5C47B0" cx="150" cy="428.9" r="4.5"/>
	</g>
	<g>
		<circle fill="#5C47B0" cx="113.9" cy="468" r="5.7"/>
	</g>
	<g>
		<circle fill="#5C47B0" cx="173.7" cy="475.8" r="3.7"/>
	</g>
	<g>
		<circle fill="#5C47B0" cx="472.9" cy="218.1" r="5.4"/>
	</g>
	<g>
		<circle fill="#5C47B0" cx="218.6" cy="486.7" r="3.7"/>
	</g>
	<g>
		<circle fill="#5C47B0" cx="287.1" cy="500.7" r="5.6"/>
	</g>
	<g>
		<circle fill="#5C47B0" cx="319.5" cy="490.3" r="3.7"/>
	</g>
	<g>
		<circle fill="#5C47B0" cx="352.2" cy="518" r="3.3"/>
	</g>
	<g>
		<circle fill="#5C47B0" cx="372.4" cy="494.5" r="4.7"/>
	</g>
	<g>
		<circle fill="#5C47B0" cx="489.2" cy="123.4" r="6.6"/>
	</g>
	<g>
		<circle fill="#5C47B0" cx="459.6" cy="354.1" r="5.6"/>
	</g>
	<g>
		<circle fill="#5C47B0" cx="442.9" cy="455.1" r="3.8"/>
	</g>
	<g>
		<circle fill="#5C47B0" cx="393.2" cy="369.4" r="3.7"/>
	</g>
	<g>
		<circle fill="#5C47B0" cx="396.9" cy="440.7" r="6.6"/>
	</g>
	<g>
		<circle fill="#5C47B0" cx="489.2" cy="411.3" r="5"/>
	</g>
	<g>
		<circle fill="#5C47B0" cx="479.2" cy="384.3" r="6.3"/>
	</g>
	<g>
		<circle fill="#5C47B0" cx="119.5" cy="354.1" r="6.7"/>
	</g>
	<g>
		<circle fill="#5C47B0" cx="413.4" cy="333.7" r="6.6"/>
	</g>
	<g>
		<circle fill="#5C47B0" cx="505" cy="195.7" r="6.6"/>
	</g>
	<g>
		<circle fill="#5C47B0" cx="456.2" cy="304.3" r="3.4"/>
	</g>
	<g>
		<circle fill="#5C47B0" cx="511.4" cy="281.9" r="6.4"/>
	</g>
	<g>
		<circle fill="#5C47B0" cx="539.4" cy="238.2" r="3.2"/>
	</g>
	<g>
		<circle fill="#5C47B0" cx="548.6" cy="219.1" r="3.3"/>
	</g>
	<g>
		<circle fill="#5C47B0" cx="413.4" cy="124.3" r="4.5"/>
	</g>
	<g>
		<circle fill="#5C47B0" cx="495.9" cy="152.4" r="3.6"/>
	</g>
	<g>
		<circle fill="#5C47B0" cx="406.2" cy="199" r="4.1"/>
	</g>
	<g>
		<circle fill="#5C47B0" cx="440.1" cy="129.4" r="5.1"/>
	</g>
	<g>
		<circle fill="#5C47B0" cx="106.5" cy="432.5" r="3.9"/>
	</g>
	<g>
		<circle fill="#5C47B0" cx="369" cy="152.4" r="4.3"/>
	</g>
	<g>
		<circle fill="#5C47B0" cx="355.5" cy="144.7" r="5.9"/>
	</g>
	<g>
		<circle fill="#5C47B0" cx="198" cy="450.4" r="5.7"/>
	</g>
	<g>
		<circle fill="#5C47B0" cx="489.2" cy="265.1" r="4.2"/>
	</g>
	<g>
		<circle fill="#5C47B0" cx="311.8" cy="194.1" r="3.5"/>
	</g>
	<g>
		<circle fill="#5C47B0" cx="134.3" cy="105.2" r="6.7"/>
	</g>
	<g>
		<circle fill="#5C47B0" cx="259.2" cy="95.9" r="4.4"/>
	</g>
	<g>
		<circle fill="#5C47B0" cx="256.2" cy="181.8" r="3"/>
	</g>
	<g>
		<circle fill="#5C47B0" cx="233.2" cy="120" r="4.2"/>
	</g>
	<g>
		<circle fill="#5C47B0" cx="357.7" cy="95.9" r="4.6"/>
	</g>
	<g>
		<circle fill="#5C47B0" cx="305.3" cy="80.8" r="4.3"/>
	</g>
	<g>
		<circle fill="#5C47B0" cx="176.6" cy="105.2" r="4.4"/>
	</g>
	<g>
		<circle fill="#5C47B0" cx="145.4" cy="152.1" r="4.2"/>
	</g>
</g>
<g>
	<path fill="#FFEFB1" d="M354.6,91c5.1-0.6,7.4-6.3,4.7-10.4c-0.7-1-1.7-1.6-2.6-2.4c-1.4-1.1-0.9-2.9-1-4.4c-0.2-2.4-2.3-3.5-4.4-4
		c-2-0.5-4.5-0.8-6.4,0.2c-0.9,0.5-1.5,1.5-1.6,2.5c-0.1,1,0.2,2.4-0.1,3.4c-1.7,0.9-3.1,2.3-3.9,4.1c-0.8,1.9-0.6,4.3,0.7,6
		c1.8,2.2,4.5,1.8,7,2.6C349.6,89.5,351.7,91.3,354.6,91z"/>
	<path fill="#F7D9A0" d="M360.4,83.9c-0.2,0.3-0.5,0.7-0.8,1c-1.6,1.4-3.2,2-5.4,2.3c-2.3,0.3-4.6-0.5-6.7-1.4
		c-0.4,0-0.9-0.1-1.4-0.2c-2.3-0.4-4.6-1.4-6.3-3.1c-0.3-0.3-0.6-0.7-0.8-1c-0.3,1.6,0.1,3.3,1.1,4.6c1.8,2.2,4.5,1.8,7,2.6
		c2.6,0.9,4.6,2.7,7.5,2.4C358.4,90.6,360.6,87.3,360.4,83.9z"/>
	<path fill="#F7D9A0" d="M349.2,81.2c2.1,0,2.1-3.2,0-3.2C347.2,78,347.2,81.2,349.2,81.2z"/>
	<path fill="#F7D9A0" d="M346.2,75.1c2.1,0,2.1-3.2,0-3.2S344.2,75.1,346.2,75.1z"/>
	<path fill="#F7D9A0" d="M355.2,79.8c-0.8-0.4-1.8-0.2-2.2,0.6c-0.3,0.5-0.3,1-0.1,1.5c0.1,1,0.3,2,1.1,2.7c0.5,0.4,1,0.6,1.7,0.7
		c0.7,0,1.2-0.2,1.8-0.7c0.4-0.3,0.6-1.1,0.4-1.6C357.3,81.6,356.5,80.5,355.2,79.8z"/>
	<path fill="#F7D9A0" d="M345.2,82.6c-1.5,0-1.5,2.4,0,2.4C346.7,84.9,346.7,82.6,345.2,82.6z"/>
	<path fill="#F7D9A0" d="M345.3,79.2c1.5,0,1.5-2.4,0-2.4S343.8,79.2,345.3,79.2z"/>
	<path fill="#F7D9A0" d="M352.8,76.4c1.4,0,1.4-2.1,0-2.1C351.4,74.2,351.4,76.4,352.8,76.4z"/>
	<path fill="#F7D9A0" d="M350.8,85.5c1.4,0,1.4-2.1,0-2.1C349.5,83.3,349.5,85.5,350.8,85.5z"/>
</g>
<g>
	<path fill="#FFEFB1" d="M139.2,192.6c5.1-0.6,7.4-6.3,4.7-10.4c-0.7-1-1.7-1.6-2.6-2.4c-1.4-1.1-0.9-2.9-1-4.4
		c-0.2-2.4-2.3-3.5-4.4-4c-2-0.5-4.5-0.8-6.4,0.2c-0.9,0.5-1.5,1.5-1.6,2.5c-0.1,1,0.2,2.4-0.1,3.4c-1.7,0.9-3.1,2.3-3.9,4.1
		c-0.8,1.9-0.6,4.3,0.7,6c1.8,2.2,4.5,1.8,7,2.6C134.3,191.1,136.3,193,139.2,192.6z"/>
	<path fill="#F7D9A0" d="M145,185.5c-0.2,0.3-0.5,0.7-0.8,1c-1.6,1.4-3.2,2-5.4,2.3c-2.3,0.3-4.6-0.5-6.7-1.4
		c-0.4,0-0.9-0.1-1.4-0.2c-2.3-0.4-4.6-1.4-6.3-3.1c-0.3-0.3-0.6-0.7-0.8-1c-0.3,1.6,0.1,3.3,1.1,4.6c1.8,2.2,4.5,1.8,7,2.6
		c2.6,0.9,4.6,2.7,7.5,2.4C143,192.2,145.3,188.9,145,185.5z"/>
	<path fill="#F7D9A0" d="M133.9,182.8c2.1,0,2.1-3.2,0-3.2C131.8,179.6,131.8,182.8,133.9,182.8z"/>
	<path fill="#F7D9A0" d="M130.9,176.7c2.1,0,2.1-3.2,0-3.2C128.8,173.5,128.8,176.7,130.9,176.7z"/>
	<path fill="#F7D9A0" d="M139.8,181.4c-0.8-0.4-1.8-0.2-2.2,0.6c-0.3,0.5-0.3,1-0.1,1.5c0.1,1,0.3,2,1.1,2.7c0.5,0.4,1,0.6,1.7,0.7
		c0.7,0,1.2-0.2,1.8-0.7c0.4-0.3,0.6-1.1,0.4-1.6C142,183.3,141.1,182.2,139.8,181.4z"/>
	<path fill="#F7D9A0" d="M129.8,184.2c-1.5,0-1.5,2.4,0,2.4S131.3,184.2,129.8,184.2z"/>
	<path fill="#F7D9A0" d="M129.9,180.9c1.5,0,1.5-2.4,0-2.4C128.4,178.5,128.4,180.9,129.9,180.9z"/>
	<path fill="#F7D9A0" d="M137.4,178c1.4,0,1.4-2.1,0-2.1C136,175.9,136,178,137.4,178z"/>
	<path fill="#F7D9A0" d="M135.5,187.1c1.4,0,1.4-2.1,0-2.1C134.1,185,134.1,187.1,135.5,187.1z"/>
</g>
<g>
	<path fill="#FFEFB1" d="M382.1,525.5c5.1-0.6,7.4-6.3,4.7-10.4c-0.7-1-1.7-1.6-2.6-2.4c-1.4-1.1-0.9-2.9-1-4.4
		c-0.2-2.4-2.3-3.5-4.4-4c-2-0.5-4.5-0.8-6.4,0.2c-0.9,0.5-1.5,1.5-1.6,2.5c-0.1,1,0.2,2.4-0.1,3.4c-1.7,0.9-3.1,2.3-3.9,4.1
		c-0.8,1.9-0.6,4.3,0.7,6c1.8,2.2,4.5,1.8,7,2.6C377.1,524,379.2,525.9,382.1,525.5z"/>
	<path fill="#F7D9A0" d="M387.9,518.4c-0.2,0.3-0.5,0.7-0.8,1c-1.6,1.4-3.2,2-5.4,2.3c-2.3,0.3-4.6-0.5-6.7-1.4
		c-0.4,0-0.9-0.1-1.4-0.2c-2.3-0.4-4.6-1.4-6.3-3.1c-0.3-0.3-0.6-0.7-0.8-1c-0.3,1.6,0.1,3.3,1.1,4.6c1.8,2.2,4.5,1.8,7,2.6
		c2.6,0.9,4.6,2.7,7.5,2.4C385.9,525.1,388.1,521.8,387.9,518.4z"/>
	<path fill="#F7D9A0" d="M376.7,515.7c2.1,0,2.1-3.2,0-3.2S374.7,515.7,376.7,515.7z"/>
	<path fill="#F7D9A0" d="M373.7,509.6c2.1,0,2.1-3.2,0-3.2C371.7,506.4,371.7,509.6,373.7,509.6z"/>
	<path fill="#F7D9A0" d="M382.7,514.3c-0.8-0.4-1.8-0.2-2.2,0.6c-0.3,0.5-0.3,1-0.1,1.5c0.1,1,0.3,2,1.1,2.7c0.5,0.4,1,0.6,1.7,0.7
		c0.7,0,1.2-0.2,1.8-0.7c0.4-0.3,0.6-1.1,0.4-1.6C384.8,516.2,384,515.1,382.7,514.3z"/>
	<path fill="#F7D9A0" d="M372.7,517.1c-1.5,0-1.5,2.4,0,2.4S374.2,517.1,372.7,517.1z"/>
	<path fill="#F7D9A0" d="M372.8,513.8c1.5,0,1.5-2.4,0-2.4S371.3,513.8,372.8,513.8z"/>
	<path fill="#F7D9A0" d="M380.3,510.9c1.4,0,1.4-2.1,0-2.1S378.9,510.9,380.3,510.9z"/>
	<path fill="#F7D9A0" d="M378.3,520c1.4,0,1.4-2.1,0-2.1C377,517.8,377,520,378.3,520z"/>
</g>
<g>
	<path fill="#FFEFB1" d="M496.5,249c2.5-0.3,3.7-3.1,2.3-5.2c-0.3-0.5-0.8-0.8-1.3-1.2c-0.7-0.5-0.4-1.4-0.5-2.2
		c-0.1-1.2-1.1-1.8-2.2-2c-1-0.2-2.2-0.4-3.2,0.1c-0.5,0.2-0.7,0.8-0.8,1.3c0,0.5,0.1,1.2-0.1,1.7c-0.8,0.5-1.5,1.1-1.9,2
		c-0.4,0.9-0.3,2.2,0.4,3c0.9,1.1,2.3,0.9,3.5,1.3C494,248.3,495.1,249.2,496.5,249z"/>
	<path fill="#F7D9A0" d="M499.4,245.5c-0.1,0.2-0.3,0.3-0.4,0.5c-0.8,0.7-1.6,1-2.7,1.1c-1.1,0.1-2.3-0.3-3.3-0.7
		c-0.2,0-0.4-0.1-0.7-0.1c-1.2-0.2-2.3-0.7-3.1-1.6c-0.2-0.2-0.3-0.3-0.4-0.5c-0.1,0.8,0,1.7,0.5,2.3c0.9,1.1,2.3,0.9,3.5,1.3
		c1.3,0.4,2.3,1.3,3.7,1.2C498.4,248.8,499.5,247.2,499.4,245.5z"/>
	<path fill="#F7D9A0" d="M493.8,244.1c1,0,1-1.6,0-1.6S492.8,244.1,493.8,244.1z"/>
	<path fill="#F7D9A0" d="M492.3,241.1c1,0,1-1.6,0-1.6C491.3,239.5,491.3,241.1,492.3,241.1z"/>
	<path fill="#F7D9A0" d="M496.8,243.5c-0.4-0.2-0.9-0.1-1.1,0.3c-0.1,0.2-0.1,0.5,0,0.7c0,0.5,0.1,1,0.5,1.3
		c0.2,0.2,0.5,0.3,0.8,0.3c0.3,0,0.6-0.1,0.9-0.3c0.2-0.2,0.3-0.5,0.2-0.8C497.9,244.4,497.4,243.8,496.8,243.5z"/>
	<path fill="#F7D9A0" d="M491.8,244.8c-0.8,0-0.8,1.2,0,1.2S492.6,244.8,491.8,244.8z"/>
	<path fill="#F7D9A0" d="M491.9,243.2c0.8,0,0.8-1.2,0-1.2S491.1,243.2,491.9,243.2z"/>
	<path fill="#F7D9A0" d="M495.6,241.7c0.7,0,0.7-1.1,0-1.1C494.9,240.7,494.9,241.7,495.6,241.7z"/>
	<path fill="#F7D9A0" d="M494.6,246.3c0.7,0,0.7-1.1,0-1.1C493.9,245.2,493.9,246.3,494.6,246.3z"/>
</g>
<g>
	<path fill="#FFEFB1" d="M132.4,414.7c2.5-0.3,3.7-3.1,2.3-5.2c-0.3-0.5-0.8-0.8-1.3-1.2c-0.7-0.5-0.4-1.4-0.5-2.2
		c-0.1-1.2-1.1-1.8-2.2-2c-1-0.2-2.2-0.4-3.2,0.1c-0.5,0.2-0.7,0.8-0.8,1.3c0,0.5,0.1,1.2-0.1,1.7c-0.8,0.5-1.5,1.1-1.9,2
		c-0.4,0.9-0.3,2.2,0.4,3c0.9,1.1,2.3,0.9,3.5,1.3C129.9,414,130.9,414.9,132.4,414.7z"/>
	<path fill="#F7D9A0" d="M135.2,411.2c-0.1,0.2-0.3,0.3-0.4,0.5c-0.8,0.7-1.6,1-2.7,1.1c-1.1,0.1-2.3-0.3-3.3-0.7
		c-0.2,0-0.4-0.1-0.7-0.1c-1.2-0.2-2.3-0.7-3.1-1.6c-0.2-0.2-0.3-0.3-0.4-0.5c-0.1,0.8,0.1,1.7,0.5,2.3c0.9,1.1,2.3,0.9,3.5,1.3
		c1.3,0.4,2.3,1.3,3.7,1.2C134.2,414.5,135.4,412.9,135.2,411.2z"/>
	<path fill="#F7D9A0" d="M129.7,409.9c1,0,1-1.6,0-1.6C128.7,408.3,128.7,409.9,129.7,409.9z"/>
	<path fill="#F7D9A0" d="M128.2,406.8c1,0,1-1.6,0-1.6C127.2,405.2,127.2,406.8,128.2,406.8z"/>
	<path fill="#F7D9A0" d="M132.6,409.2c-0.4-0.2-0.9-0.1-1.1,0.3c-0.1,0.2-0.1,0.5,0,0.7c0,0.5,0.1,1,0.5,1.3
		c0.2,0.2,0.5,0.3,0.8,0.3c0.3,0,0.6-0.1,0.9-0.3c0.2-0.2,0.3-0.5,0.2-0.8C133.7,410.1,133.3,409.5,132.6,409.2z"/>
	<path fill="#F7D9A0" d="M127.7,410.5c-0.8,0-0.8,1.2,0,1.2C128.4,411.7,128.4,410.5,127.7,410.5z"/>
	<path fill="#F7D9A0" d="M127.7,408.9c0.8,0,0.8-1.2,0-1.2C127,407.7,127,408.9,127.7,408.9z"/>
	<path fill="#F7D9A0" d="M131.5,407.5c0.7,0,0.7-1.1,0-1.1S130.8,407.5,131.5,407.5z"/>
	<path fill="#F7D9A0" d="M130.5,412c0.7,0,0.7-1.1,0-1.1S129.8,412,130.5,412z"/>
</g>
<g>
	<path fill="#FFEFB1" d="M290.2,167.8c2.5-0.3,3.7-3.1,2.3-5.2c-0.3-0.5-0.8-0.8-1.3-1.2c-0.7-0.5-0.4-1.4-0.5-2.2
		c-0.1-1.2-1.1-1.8-2.2-2c-1-0.2-2.2-0.4-3.2,0.1c-0.5,0.2-0.7,0.8-0.8,1.3c0,0.5,0.1,1.2-0.1,1.7c-0.8,0.5-1.5,1.1-1.9,2
		c-0.4,0.9-0.3,2.2,0.4,3c0.9,1.1,2.3,0.9,3.5,1.3C287.7,167.1,288.7,168,290.2,167.8z"/>
	<path fill="#F7D9A0" d="M293.1,164.3c-0.1,0.2-0.3,0.3-0.4,0.5c-0.8,0.7-1.6,1-2.7,1.1c-1.1,0.1-2.3-0.3-3.3-0.7
		c-0.2,0-0.4-0.1-0.7-0.1c-1.2-0.2-2.3-0.7-3.1-1.6c-0.2-0.2-0.3-0.3-0.4-0.5c-0.1,0.8,0,1.7,0.5,2.3c0.9,1.1,2.3,0.9,3.5,1.3
		c1.3,0.4,2.3,1.3,3.7,1.2C292.1,167.6,293.2,166,293.1,164.3z"/>
	<path fill="#F7D9A0" d="M287.5,162.9c1,0,1-1.6,0-1.6S286.5,162.9,287.5,162.9z"/>
	<path fill="#F7D9A0" d="M286,159.9c1,0,1-1.6,0-1.6C285,158.3,285,159.9,286,159.9z"/>
	<path fill="#F7D9A0" d="M290.5,162.2c-0.4-0.2-0.9-0.1-1.1,0.3c-0.1,0.2-0.1,0.5,0,0.7c0,0.5,0.1,1,0.5,1.3
		c0.2,0.2,0.5,0.3,0.8,0.3c0.3,0,0.6-0.1,0.9-0.3c0.2-0.2,0.3-0.5,0.2-0.8C291.5,163.2,291.1,162.6,290.5,162.2z"/>
	<path fill="#F7D9A0" d="M285.5,163.6c-0.8,0-0.8,1.2,0,1.2S286.3,163.6,285.5,163.6z"/>
	<path fill="#F7D9A0" d="M285.6,162c0.8,0,0.8-1.2,0-1.2S284.8,162,285.6,162z"/>
	<path fill="#F7D9A0" d="M289.3,160.5c0.7,0,0.7-1.1,0-1.1C288.6,159.5,288.6,160.5,289.3,160.5z"/>
	<path fill="#F7D9A0" d="M288.3,165.1c0.7,0,0.7-1.1,0-1.1C287.6,164,287.6,165.1,288.3,165.1z"/>
</g>
<g>
	<g>
		<circle fill="#FFCA39" cx="330" cy="345.1" r="154.2"/>
		<g>
			<path fill="#F5BA18" d="M455.4,255.4c22.6,41.3,25,92.7,2,137.7c-37,72.6-125.8,101.4-198.3,64.4
				c-55.3-28.2-85.2-86.5-79.9-144.7c-14.3,66.7,17.2,137.2,80.8,169.6c75.9,38.7,168.7,8.5,207.4-67.4
				C494.4,362.1,487.8,300.7,455.4,255.4z"/>
		</g>
		<g>
			<path fill="#FFB700" d="M329.9,222.2c11.3,7,24.2,12.3,36,18.4c8.4,4.3,16.5,8.4,25.4,11.4c6.4,2.2,16.2,6.9,22.7,7.3
				c13.7,0.9-1.7-9.2-5.8-11.5c-15-8.2-30.6-15.6-45.8-23.4c-8.2-4.2-38.2-15.7-37.1-27.6c0.2-2.3,1.7-4.3,3.8-5.9
				c-10.8,0.1-21.4,1.3-31.8,3.5c4,5.6,9.2,11.2,13.9,14.6C317.4,213.4,323.4,218.2,329.9,222.2z"/>
			<path fill="#FFB700" d="M275.7,271.5c12.8,7.2,34.7,11.9,45,22.8c10.5,11.1-2.4,15.3-3.8,26.7c-1.1,8.6,9.9,13.6,16.1,17.2
				c13.8,8,28.7,15.7,43.7,21c15.8,5.6,22.3,3.5,35.9-3c8.5-4.1,16.2-3.4,24.3,2c9,5.9,18.3,14.5,29.5,14.8c3.2,0.1,9.1-0.1,15.2-1
				c2-11.3,2.7-22.6,2.2-33.9c-3.8,0.5-7.8,1.1-11.7,2c-27.1,6.8-50.6-3.4-74.7-15.7c-11.5-5.9-23-11.7-34.4-17.6
				c-4.4-2.2-9.3-4.2-11.7-8.8c-4.5-9,2.7-6.5,9-7.6c19.2-3.3-9.3-16.3-15.4-19.4c-18.4-9.4-36.9-18.5-54.8-28.6
				c-9.4-5.3-17.2-12.5-25.2-19.4c-3-2.6-7.9-7.5-10.4-12.5c-8.8,4.9-17.1,10.6-24.8,17.2c5.3,7.3,10,15.6,16.1,22
				C254.2,258.3,265.5,265.8,275.7,271.5z"/>
			<path fill="#FFB700" d="M448.7,259c-1.9,5.3-5.1,12.8-10.5,15c-4,1.6-11.7-0.2-16.2,0c-5.6,0.3-11.1,1-16.5-0.1
				c-9-1.8-17.4-7.4-25.8-11c-21.5-9.2-44.8-20.1-63.1-34.5c-4.7-3.7-8.9-7.6-13.8-11.3c-3.1-2.3-20.2-14.3-15.7-1.5
				c2.2,6.3,13.7,13.1,19,17.1c11.6,8.7,23.8,15.5,36.7,22.1c24.7,12.6,48.7,26.4,75.3,34.3c7.4,2.2,13.1,3.4,20.6,0.9
				c4.1-1.4,7.6-4.2,12-4.5c5.7-0.4,9.1,2,11.3,6.4c-3.3,21.1-20.3,17.4-36.4,15c-7.1-1.1-29.3-13.8-35.8-7.4
				c-9.4,9.4,26.6,22,30.2,23.3c17.4,5.9,44.5,12.9,63.2,4.8c-3.7-32-17.4-62.5-39.6-86.7C447,246.8,451.9,250.1,448.7,259z"/>
			<path fill="#FFB700" d="M416.6,462.9c-14.9,8.4-30.1,16.1-47.7,13.1c-16.2-2.7-36.7-15.2-50.3-24c-15.3-9.9-29.5-16.5-47-21
				c-16.8-4.3-38.7-20.4-37.7-40.2c0.4-7.2,3-12.2-1.6-18.9c-2.7-3.9-7.2-6.3-11.5-6.4c-3.9,0-5.9,0.7-8.3,3.6
				c-6.7,8,1.9,8.9,5.7,14.1c3.1,4.3,0.8,7.8,0.3,12.6c-0.7,6.7,0.5,11.9,5.4,16.5c14,12.9,36.5,14.3,46.8,30.3
				c6.3,9.8,16.8,17,28,20.3c7.5,2.2,22.1,1.6,25.3,11c5.4,15.5-20,7.6-25.9,5.5c-13.3-4.6-25.7-10.1-38.2-16.4
				c-9.2-4.7-21.9-8.8-29.2-16.3c-2.5-2.6-4.5-6.1-6.6-9c-3.5-4.8-7.4-7.9-11.5-12.5c-6.2-7-11.2-17.2-11.5-26.4
				c-0.1-3.8,0.3-7.1-0.3-10.6c-0.7-4.7-2.7-8.3-2.6-13.2c0.2-9.4,8.2-14,3.8-23.1c-6.2-12.7-12.3-5.2-23.7-9.1
				c-0.8-0.3-1.6-0.6-2.4-0.9c-1.1,57.2,29.8,112.8,84.2,140.5c61.1,31.1,133.1,17.7,179.1-28.3
				C431.3,456.3,423.9,458.8,416.6,462.9z"/>
			<path fill="#FFB700" d="M214.8,301.6c4.2,6.5-3.6,15-0.3,23.1c4.1,10.3,11.7,9.6,21.2,9.9c7,0.2,24.2,1,27.8,9.4
				c5.6,13-21.7,18.1-8.1,29.6c8,6.8,16.6,0.6,23.6,11.4c10.3,15.8,27.8,24.8,46.2,30.1c18.5,5.4,32.7,20.3,52.5,21.1
				c10.5,0.4,19.8-5.1,30.1-5c11.7,0.1,20.9,4.1,32.9,2.2c7.4-1.2,14.5-5.1,21.5-8.9c1.8-3,3.5-6.1,5.1-9.3
				c3.7-7.3,6.8-14.7,9.2-22.2c-5.8-1.6-11.6-2.8-16.9-0.1c-4.5,2.3-4.4,5.5-6.5,9.7c-3,6-6.6,7.9-13.4,9.3
				c-18.6,3.8-38.5-4.6-57-5.6c-12.4-0.7-23.7-0.7-35.7-5c-9.6-3.5-28.4-10.1-35.3-18.1c-8.1-9.4,3.3-14.2,11.7-12.7
				c19.9,3.7,36.3,18.4,55.2,24.6c12,3.9,23.2,6.8,35.6,6.6c6.2-0.1,15.5,1.9,19.8-4c5.3-7.2,0-12.7-7.5-14.3
				c-8.1-1.7-15.8,0.4-23.7,1.5c-11.1,1.6-19-1.1-28.7-6.1c-8.3-4.3-14.2-9.9-21.1-15.8c-5.5-4.7-13.1-7.4-19.5-10.7
				c-17.1-8.7-35.3-13-52.6-21.1c-5-2.3-26.1-12-13.6-17.9c6.9-3.3,19.2,7,24.9-0.6c6.9-9.3-12-17.9-18.1-21
				c-13-6.5-26.5-12-39.5-18.7c-7.8-4-15.2-7.6-22.1-13c-2.4-1.9-4.7-4.1-6.9-6.3c-4.9,6.6-9.3,13.7-13.1,21.3
				c-2.3,4.4-4.3,8.9-6.1,13.5c4.2,1.6,8.4,3.2,12.5,5C203.1,295.4,212.3,297.7,214.8,301.6z"/>
		</g>
		<g>
			<path fill="#F0AB00" d="M481.8,372c0.1-0.5,0.2-0.9,0.2-1.4c0.1-0.8,0.3-1.7,0.4-2.5c0.1-0.8,0.2-1.6,0.3-2.4
				c0.2-1.2,0.3-2.5,0.5-3.7c0.1-1,0.2-2,0.3-3c0.1-0.8,0.1-1.5,0.2-2.3c0.1-0.8,0.1-1.7,0.2-2.5c0-0.8,0.1-1.5,0.1-2.3
				c0-0.9,0.1-1.7,0.1-2.6c0-0.7,0-1.4,0-2.2c0-1,0-2,0-2.9c0-0.6,0-1.2,0-1.8c0-1.5-0.1-2.9-0.1-4.4c-3.7,0.5-7.4,1-11.1,1.9
				c-1,11-3.3,22.1-7,32.9c0.2,0,0.5,0,0.7,0C469.9,373,475.7,372.8,481.8,372z"/>
			<path fill="#F0AB00" d="M483.2,327.5c0-0.4-0.1-0.8-0.2-1.2c-0.1-1.1-0.3-2.2-0.5-3.4c-0.1-0.4-0.1-0.9-0.2-1.3
				c-0.2-1.3-0.4-2.7-0.7-4c-0.1-0.5-0.2-0.9-0.3-1.4c-0.3-1.3-0.5-2.7-0.8-4c-0.1-0.4-0.2-0.8-0.3-1.2c-0.3-1.2-0.6-2.5-0.9-3.7
				c-0.1-0.3-0.2-0.7-0.3-1c-0.3-1.3-0.7-2.6-1.1-3.9c-0.1-0.4-0.2-0.8-0.3-1.1c-0.4-1.3-0.8-2.7-1.2-4c-0.1-0.4-0.2-0.7-0.4-1.1
				c-0.5-1.4-0.9-2.7-1.4-4.1c-0.1-0.3-0.2-0.5-0.3-0.8c-0.5-1.3-1-2.5-1.5-3.8c-0.1-0.2-0.2-0.5-0.3-0.7c-0.6-1.4-1.1-2.7-1.7-4
				c-0.1-0.3-0.3-0.6-0.4-0.9c-0.6-1.3-1.2-2.7-1.8-4c-0.1-0.3-0.3-0.5-0.4-0.8c-0.7-1.3-1.3-2.7-2-4c0-0.1-0.1-0.1-0.1-0.2
				c-0.7-1.3-1.4-2.7-2.2-4c-0.1-0.2-0.3-0.5-0.4-0.7c-0.7-1.3-1.5-2.6-2.3-3.8c-0.2-0.3-0.3-0.5-0.5-0.8c-0.8-1.3-1.6-2.6-2.4-3.8
				c-0.1-0.2-0.2-0.3-0.3-0.5c-0.8-1.2-1.6-2.4-2.5-3.6c-0.1-0.1-0.1-0.2-0.2-0.3c12.5,22.8,18.8,48.7,18,74.9
				C476.9,329.7,480.2,328.8,483.2,327.5z"/>
			<path fill="#F0AB00" d="M416.6,462.9c-14.9,8.4-30.1,16.1-47.7,13.1c-5-0.8-10.3-2.6-15.8-4.9c-9.6,1.8-19.5,2.7-29.3,2.5
				c0,0.1,0.1,0.2,0.1,0.3c5.4,15.5-20,7.6-25.9,5.5c-13.3-4.6-25.7-10.1-38.2-16.4c-9.2-4.7-21.9-8.8-29.2-16.3
				c-2.5-2.6-4.5-6.1-6.6-9c-3.5-4.8-7.4-7.9-11.5-12.5c-4.7-5.2-8.6-12.3-10.5-19.4c-12.1-18.9-19.7-40.3-22.4-62.6
				c-0.5-0.1-0.9-0.3-1.4-0.4c-0.8-0.3-1.6-0.6-2.4-0.9c0,0.3,0,0.6,0,0.9c0,1.2,0,2.5,0,3.7c0,0.5,0,1,0,1.5c0,1.3,0.1,2.5,0.1,3.8
				c0,0.5,0,1,0.1,1.4c0.1,1.4,0.2,2.8,0.3,4.1c0,0.5,0.1,1,0.1,1.4c0.1,1.4,0.3,2.8,0.4,4.2c0,0.4,0.1,0.7,0.1,1.1
				c0.2,1.2,0.3,2.4,0.5,3.7c0.1,0.4,0.1,0.8,0.2,1.2c0.2,1.4,0.5,2.8,0.7,4.2c0.1,0.4,0.2,0.9,0.3,1.3c0.3,1.4,0.6,2.8,0.9,4.1
				c0.1,0.4,0.2,0.8,0.3,1.2c0.3,1.3,0.6,2.6,0.9,3.8c0.1,0.3,0.1,0.6,0.2,0.9c0.4,1.4,0.7,2.7,1.1,4.1c0.1,0.4,0.2,0.8,0.3,1.2
				c0.4,1.4,0.8,2.7,1.3,4.1c0.1,0.4,0.3,0.8,0.4,1.1c0.5,1.4,1,2.8,1.5,4.2c0.1,0.2,0.2,0.5,0.3,0.7c0.5,1.3,1,2.5,1.5,3.8
				c0.1,0.3,0.2,0.6,0.4,0.9c0.6,1.4,1.2,2.7,1.8,4c0.2,0.3,0.3,0.7,0.5,1c0.6,1.3,1.3,2.7,1.9,4c0.1,0.3,0.3,0.6,0.4,0.8
				c0.6,1.3,1.3,2.5,2,3.8c0.1,0.2,0.2,0.3,0.3,0.5c0.7,1.3,1.5,2.7,2.3,4c0.2,0.3,0.3,0.6,0.5,0.9c0.8,1.3,1.5,2.6,2.3,3.8
				c0.2,0.3,0.4,0.6,0.5,0.8c0.8,1.3,1.7,2.6,2.6,3.9c0.1,0.1,0.2,0.2,0.2,0.4c0.8,1.2,1.7,2.4,2.6,3.6c0.2,0.2,0.3,0.4,0.5,0.7
				c0.9,1.2,1.8,2.4,2.8,3.6c0.2,0.3,0.4,0.5,0.6,0.8c1,1.2,1.9,2.4,2.9,3.6c0.2,0.2,0.3,0.4,0.5,0.5c1,1.1,2,2.3,3,3.4
				c0.1,0.1,0.2,0.2,0.3,0.4c1.1,1.2,2.2,2.3,3.3,3.5c0.2,0.2,0.4,0.4,0.7,0.7c1.1,1.1,2.2,2.2,3.3,3.3c0.2,0.2,0.4,0.4,0.6,0.6
				c1.2,1.1,2.4,2.2,3.6,3.3c0,0,0.1,0.1,0.1,0.1c1.2,1.1,2.4,2.1,3.7,3.1c0.2,0.2,0.4,0.3,0.6,0.5c1.2,1,2.5,2,3.7,3
				c0.2,0.2,0.5,0.4,0.8,0.6c1.3,1,2.6,1.9,3.9,2.9c0.2,0.1,0.3,0.2,0.5,0.4c1.3,0.9,2.6,1.8,3.9,2.7c0.2,0.1,0.3,0.2,0.4,0.3
				c1.4,0.9,2.8,1.8,4.2,2.6c0.3,0.2,0.5,0.3,0.8,0.5c1.4,0.8,2.8,1.7,4.2,2.5c0.2,0.1,0.5,0.3,0.7,0.4c1.5,0.8,3,1.6,4.6,2.4
				c1.1,0.6,2.2,1.1,3.3,1.6c0.3,0.2,0.7,0.3,1,0.5c0.8,0.4,1.5,0.7,2.3,1.1c0.4,0.2,0.8,0.4,1.2,0.5c0.8,0.3,1.5,0.7,2.3,1
				c0.4,0.2,0.7,0.3,1.1,0.5c1,0.4,2,0.8,3,1.2c0.1,0,0.2,0.1,0.3,0.1c1.1,0.4,2.2,0.8,3.3,1.2c0.3,0.1,0.7,0.2,1,0.4
				c0.8,0.3,1.6,0.5,2.3,0.8c0.4,0.1,0.8,0.3,1.2,0.4c0.8,0.2,1.5,0.5,2.3,0.7c0.4,0.1,0.8,0.2,1.2,0.4c0.9,0.3,1.8,0.5,2.7,0.8
				c0.2,0.1,0.4,0.1,0.7,0.2c1.1,0.3,2.2,0.6,3.3,0.9c0.4,0.1,0.7,0.2,1.1,0.3c0.8,0.2,1.5,0.4,2.3,0.5c0.4,0.1,0.9,0.2,1.3,0.3
				c0.7,0.2,1.4,0.3,2.2,0.5c0.4,0.1,0.9,0.2,1.3,0.3c0.8,0.2,1.6,0.3,2.4,0.4c0.3,0.1,0.7,0.1,1,0.2c1.1,0.2,2.2,0.4,3.3,0.5
				c0.4,0.1,0.8,0.1,1.2,0.2c0.7,0.1,1.5,0.2,2.2,0.3c0.5,0.1,1,0.1,1.4,0.2c0.7,0.1,1.3,0.1,2,0.2c0.5,0,1,0.1,1.5,0.1
				c0.7,0.1,1.4,0.1,2.1,0.2c0.4,0,0.9,0.1,1.3,0.1c1.1,0.1,2.1,0.1,3.2,0.2c0.5,0,1,0,1.4,0.1c0.7,0,1.3,0.1,2,0.1
				c0.5,0,1.1,0,1.6,0c0.6,0,1.2,0,1.8,0c0.6,0,1.1,0,1.7,0c0.6,0,1.2,0,1.8,0c0.5,0,1.1,0,1.6,0c0.9,0,1.8-0.1,2.8-0.1
				c0.7,0,1.4-0.1,2.1-0.1c0.5,0,1.1-0.1,1.6-0.1c0.6,0,1.2-0.1,1.8-0.1c0.5,0,1-0.1,1.5-0.1c0.6-0.1,1.3-0.1,1.9-0.2
				c0.5,0,0.9-0.1,1.4-0.2c0.6-0.1,1.3-0.1,1.9-0.2c0.3,0,0.5-0.1,0.8-0.1c1.4-0.2,2.8-0.4,4.2-0.6c0.4-0.1,0.7-0.1,1.1-0.2
				c0.7-0.1,1.4-0.2,2.1-0.4c0.4-0.1,0.8-0.1,1.2-0.2c0.7-0.1,1.4-0.3,2.1-0.4c0.3-0.1,0.7-0.1,1-0.2c0.7-0.2,1.5-0.3,2.2-0.5
				c0,0,0,0,0,0c1.8-0.4,3.6-0.9,5.4-1.3c0.1,0,0.3-0.1,0.4-0.1c0.8-0.2,1.5-0.4,2.3-0.6c0.3-0.1,0.5-0.2,0.8-0.2
				c0.8-0.2,1.5-0.4,2.3-0.7c0.2-0.1,0.5-0.1,0.7-0.2c3.5-1.1,7-2.3,10.5-3.7c0.2-0.1,0.3-0.1,0.5-0.2c0.8-0.3,1.6-0.7,2.4-1
				c0.1-0.1,0.3-0.1,0.4-0.2c3.5-1.5,7-3.1,10.5-4.9c0,0,0.1,0,0.1-0.1c0.8-0.4,1.7-0.9,2.5-1.3c0.1,0,0.1-0.1,0.2-0.1
				c4.3-2.3,8.6-4.9,12.7-7.6c0,0,0,0,0,0c8.3-5.5,16.1-11.9,23.3-19.1c0,0,0,0,0,0C431.3,456.3,423.9,458.8,416.6,462.9z"/>
			<path fill="#F0AB00" d="M469.6,410.5c0.1-0.2,0.2-0.4,0.3-0.6c0.7-1.4,1.3-2.9,1.9-4.3c0.1-0.3,0.3-0.6,0.4-1
				c0.6-1.4,1.1-2.7,1.6-4.1c0.2-0.4,0.3-0.8,0.5-1.2c0.5-1.3,1-2.7,1.4-4c0.1-0.4,0.3-0.9,0.4-1.3c0.1-0.4,0.3-0.8,0.4-1.2
				c-5.8-1.5-11.6-2.8-16.9-0.1c-4.5,2.3-4.4,5.5-6.5,9.7c-1.4,2.9-3,4.8-5,6.2c-6.2,9.1-13.2,17.4-21,24.8
				c4.2,0.5,8.6,0.7,13.4-0.1c7.4-1.2,14.5-5.1,21.5-8.9c0.8-1.4,1.6-2.8,2.4-4.2c0.1-0.2,0.2-0.4,0.3-0.6c0.8-1.5,1.6-2.9,2.4-4.4
				C468.2,413.6,468.9,412.1,469.6,410.5z"/>
		</g>
	</g>
	<g>
		<path fill="#FFBD85" d="M365.8,275c-133.5-68-257.7-91.8-277.4-53s72.5,125.3,205.9,193.3s257.7,91.8,277.4,53
			C591.4,429.6,499.2,343,365.8,275z M299.8,404.3C174.4,340.4,87,260.6,104.5,226.2s133.5-10.6,258.9,53.3
			c125.4,63.9,212.9,143.7,195.3,178.2S425.2,468.3,299.8,404.3z"/>
		<path fill="#FFEFB1" d="M363.5,279.5c-125.4-63.9-241.3-87.8-258.9-53.3s69.9,114.2,195.3,178.2c125.4,63.9,241.3,87.8,258.9,53.3
			S488.9,343.4,363.5,279.5z M302.8,398.5c-117.3-59.8-199.3-134-183.1-165.8c16.2-31.8,124.4-9.1,241.7,50.7
			c117.3,59.8,199.3,134,183.1,165.8C528.3,481,420.1,458.3,302.8,398.5z"/>
	</g>
	<g>
		<path fill="#FFBD85" d="M360.2,285.8c-112.8-57.5-216.7-79.6-232.1-49.4c-15.4,30.2,63.6,101.3,176.4,158.8s216.7,79.6,232.1,49.4
			S473,343.3,360.2,285.8z M308.8,386.7c-106-54-180.8-119.6-167.1-146.5c13.7-26.9,110.7-4.9,216.7,49.2
			c106,54,180.8,119.6,167.1,146.5C511.9,462.7,414.8,440.7,308.8,386.7z"/>
		<path fill="#FFEFB1" d="M358.4,289.4c-106-54-203-76-216.7-49.2c-13.7,26.9,61.1,92.4,167.1,146.5c106,54,203,76,216.7,49.2
			C539.3,409,464.4,343.4,358.4,289.4z M311.1,382.1C212,331.6,141.9,270.6,154.5,245.8c12.6-24.8,103.2-3.9,202.4,46.7
			S526.1,404,513.5,428.8C500.9,453.5,410.3,432.7,311.1,382.1z"/>
	</g>
	<g>
		<path fill="#FFCA39" d="M471.7,406c31.9-74,1.2-161.1-71.7-198.2c-72.8-37.1-161.3-10.8-202.5,58.5L471.7,406z"/>
		<g>
			<path fill="#F5BA18" d="M457.4,393.1c-0.8,1.5-1.5,2.9-2.3,4.4l16.6,8.4c21.9-50.8,14.3-107.8-16.2-150.6
				C478,296.7,480.4,348.1,457.4,393.1z"/>
		</g>
		<g>
			<path fill="#FFB700" d="M329.9,222.2c11.3,7,24.2,12.3,36,18.4c8.4,4.3,16.5,8.4,25.4,11.4c6.4,2.2,16.2,6.9,22.7,7.3
				c13.7,0.9-1.7-9.2-5.8-11.5c-15-8.2-30.6-15.6-45.8-23.4c-8.2-4.2-38.2-15.7-37.1-27.6c0.2-2.3,1.7-4.3,3.8-5.9
				c-10.8,0.1-21.4,1.3-31.8,3.5c4,5.6,9.2,11.2,13.9,14.6C317.4,213.4,323.4,218.2,329.9,222.2z"/>
			<path fill="#FFB700" d="M275.7,271.5c12.8,7.2,34.7,11.9,45,22.8c10.5,11.1-2.4,15.3-3.8,26.7c-0.3,2.8,0.6,5.1,2.2,7.2
				l65.2,33.2c10.8,2.5,17.2,0.2,28.5-5.2c8.5-4.1,16.2-3.4,24.3,2c9,5.9,18.3,14.5,29.5,14.8c3.2,0.1,9.1-0.1,15.2-1
				c2-11.3,2.7-22.6,2.2-33.9c-3.8,0.5-7.8,1.1-11.7,2c-27.1,6.8-50.6-3.4-74.7-15.7c-11.5-5.9-23-11.7-34.4-17.6
				c-4.4-2.2-9.3-4.2-11.7-8.8c-4.5-9,2.7-6.5,9-7.6c19.2-3.3-9.3-16.3-15.4-19.4c-18.4-9.4-36.9-18.5-54.8-28.6
				c-9.4-5.3-17.2-12.5-25.2-19.4c-3-2.6-7.9-7.5-10.4-12.5c-8.8,4.9-17.1,10.6-24.8,17.2c5.3,7.3,10,15.6,16.1,22
				C254.2,258.3,265.5,265.8,275.7,271.5z"/>
			<path fill="#FFB700" d="M448.7,259c-1.9,5.3-5.1,12.8-10.5,15c-4,1.6-11.7-0.2-16.2,0c-5.6,0.3-11.1,1-16.5-0.1
				c-9-1.8-17.4-7.4-25.8-11c-21.5-9.2-44.8-20.1-63.1-34.5c-4.7-3.7-8.9-7.6-13.8-11.3c-3.1-2.3-20.2-14.3-15.7-1.5
				c2.2,6.3,13.7,13.1,19,17.1c11.6,8.7,23.8,15.5,36.7,22.1c24.7,12.6,48.7,26.4,75.3,34.3c7.4,2.2,13.1,3.4,20.6,0.9
				c4.1-1.4,7.6-4.2,12-4.5c5.7-0.4,9.1,2,11.3,6.4c-3.3,21.1-20.3,17.4-36.4,15c-7.1-1.1-29.3-13.8-35.8-7.4
				c-9.4,9.4,26.6,22,30.2,23.3c17.4,5.9,44.5,12.9,63.2,4.8c-3.7-32-17.4-62.5-39.6-86.7C447,246.8,451.9,250.1,448.7,259z"/>
			<path fill="#FFB700" d="M433.7,386.6c-1.5-1.4-3.6-2.4-5.9-3L433.7,386.6z"/>
			<path fill="#FFB700" d="M471.7,406c1.9-4.3,3.5-8.7,4.9-13.1c-5.8-1.6-11.6-2.8-16.9-0.1c-2.6,1.3-3.6,2.9-4.5,4.8L471.7,406z"/>
			<path fill="#FFB700" d="M291.2,314c0.4-0.3,0.8-0.8,1.2-1.2c6.9-9.3-12-17.9-18.1-21c-13-6.5-26.5-12-39.5-18.7
				c-7.8-4-15.2-7.6-22.1-13c-2.4-1.9-4.7-4.1-6.9-6.3c-2.9,4-5.7,8.1-8.2,12.4L291.2,314z"/>
		</g>
		<g>
			<path fill="#F0AB00" d="M481.8,372c0.1-0.5,0.2-0.9,0.2-1.4c0.1-0.8,0.3-1.7,0.4-2.5c0.1-0.8,0.2-1.6,0.3-2.4
				c0.2-1.2,0.3-2.5,0.5-3.7c0.1-1,0.2-2,0.3-3c0.1-0.8,0.1-1.5,0.2-2.3c0.1-0.8,0.1-1.7,0.2-2.5c0-0.8,0.1-1.5,0.1-2.3
				c0-0.9,0.1-1.7,0.1-2.6c0-0.7,0-1.4,0-2.2c0-1,0-2,0-2.9c0-0.6,0-1.2,0-1.8c0-1.5-0.1-2.9-0.1-4.4c-3.7,0.5-7.4,1-11.1,1.9
				c-1,11-3.3,22.1-7,32.9c0.2,0,0.5,0,0.7,0C469.9,373,475.7,372.8,481.8,372z"/>
			<path fill="#F0AB00" d="M483.2,327.5c0-0.4-0.1-0.8-0.2-1.2c-0.1-1.1-0.3-2.2-0.5-3.4c-0.1-0.4-0.1-0.9-0.2-1.3
				c-0.2-1.3-0.4-2.7-0.7-4c-0.1-0.5-0.2-0.9-0.3-1.4c-0.3-1.3-0.5-2.7-0.8-4c-0.1-0.4-0.2-0.8-0.3-1.2c-0.3-1.2-0.6-2.5-0.9-3.7
				c-0.1-0.3-0.2-0.7-0.3-1c-0.3-1.3-0.7-2.6-1.1-3.9c-0.1-0.4-0.2-0.8-0.3-1.1c-0.4-1.3-0.8-2.7-1.2-4c-0.1-0.4-0.2-0.7-0.4-1.1
				c-0.5-1.4-0.9-2.7-1.4-4.1c-0.1-0.3-0.2-0.5-0.3-0.8c-0.5-1.3-1-2.5-1.5-3.8c-0.1-0.2-0.2-0.5-0.3-0.7c-0.6-1.4-1.1-2.7-1.7-4
				c-0.1-0.3-0.3-0.6-0.4-0.9c-0.6-1.3-1.2-2.7-1.8-4c-0.1-0.3-0.3-0.5-0.4-0.8c-0.7-1.3-1.3-2.7-2-4c0-0.1-0.1-0.1-0.1-0.2
				c-0.7-1.3-1.4-2.7-2.2-4c-0.1-0.2-0.3-0.5-0.4-0.7c-0.7-1.3-1.5-2.6-2.3-3.8c-0.2-0.3-0.3-0.5-0.5-0.8c-0.8-1.3-1.6-2.6-2.4-3.8
				c-0.1-0.2-0.2-0.3-0.3-0.5c-0.8-1.2-1.6-2.4-2.5-3.6c-0.1-0.1-0.1-0.2-0.2-0.3c12.5,22.8,18.8,48.7,18,74.9
				C476.9,329.7,480.2,328.8,483.2,327.5z"/>
			<path fill="#F0AB00" d="M471.7,406c0-0.1,0.1-0.2,0.1-0.3c0.1-0.3,0.3-0.6,0.4-1c0.6-1.4,1.1-2.7,1.6-4.1
				c0.2-0.4,0.3-0.8,0.5-1.2c0.5-1.3,1-2.7,1.4-4c0.1-0.4,0.3-0.9,0.4-1.3c0.1-0.4,0.3-0.8,0.4-1.2c-5.8-1.5-11.6-2.8-16.9-0.1
				c-2.6,1.3-3.6,2.9-4.5,4.8L471.7,406z"/>
		</g>
	</g>
</g>
<g>
	<circle fill="#D8C3FF" cx="183.4" cy="128.7" r="38.3"/>
	<g>
		<path fill="#B6B1F7" d="M210.2,101.4c7.7,10.4,9.5,24.5,3.5,36.9c-8.6,17.9-30,25.4-47.9,16.8c-12.4-6-19.9-18.1-20.4-31
			c-1.9,15.8,6.3,31.8,21.4,39.1c19.1,9.1,41.9,1.1,51.1-17.9C225.2,130.1,221.6,112.5,210.2,101.4z"/>
	</g>
	<g>
		<path fill="#97B1FF" d="M163.4,101.1c0.1,1.7-0.4,3.2,0.4,4.8c1.6,3.2,2.3,0.1,4.9,0.2c3.6,0.2,2.7,5,3.7,7.3
			c1.6,3.8,6.6,7,10.7,5.7c2-0.6,2.5-1.4,4.6-0.1c1.9,1.3,1.1,2,2.2,4c1.9,3.5,3.4,1.1,5.9,0.7c2.5-0.4,3.2,1.8,3.5,3.9
			c0.3,1.7-0.2,2.4,1.9,3.6c1.3,0.7,2.5,0.7,3.9,0.6c1.9-0.1,3.3-1.6,3.2-3.5c0-0.7,0-1.3,0.4-1.9c1-1.8,4.1-1.5,6.6-0.6
			c1.6,0.6,3.3-0.3,3.7-2c0.3-1.1,0.7-1.9,1.9-2.1c0,0,0.1,0,0.1,0c-0.5-2.8-1.4-5.6-2.5-8.2c-1.2-0.5-2.4-0.8-3.3,0
			c-1.9,1.6,1.6,5.7-1.7,5.1c-1.9-0.4-1.7-2.2-4.5-1c-1.2,0.5-2.1,1.8-3.2,2.2c-4.6,1.6-3.5-3.8-6.3-5.3c-1.5-0.8-4.4,0.5-5.6-0.2
			c-0.9-0.5-0.6-2.5-1.8-3.2c-0.8-0.5-2-0.2-2.9,0c-1.2,0.3-2.1,1.7-3,1.9c-1.6,0.4-4.7-1-5.9-2.3c-1.7-1.9,0.3-3.9-1.7-5.4
			c-1-0.8-2.3-0.3-3.3-1.1c-1.1-0.9-0.4-2.5-1.4-3.4c-1.5-1.4-5.5-0.4-4.4-3.3c0.2-0.5,1.4-0.8,1.7-1.8c0.2-0.7,0.2-1.4-0.2-2.1
			c-0.2-0.3-0.6-0.6-1-0.9c-3,1.1-5.9,2.7-8.6,4.5C162.6,97.9,163.2,99,163.4,101.1z"/>
		<path fill="#97B1FF" d="M176.4,96.7c-0.1,2.3,1.7,4.2,3.9,3.7c1.3-0.3,1.5-1.4,3.1-1.3c1,0.1,1.5,0.8,2.1,1.3
			c1.8,1.4,3.6,4.3,5.5,1.4c-0.4-0.8-0.8-3,0.4-3.6c1.8-1,2.6,1.4,3.1,2.4c1.2,2.2,2.9,3.8,5.8,3.1c0.8-0.2,1.6-1.1,2.6-0.9
			c1.2,0.2,2.9,1.5,3.5,2.7c0.8,1.8,0.1,7.9,4.3,6.2c1.7-0.7,1.4-3.2,3.3-4c0.4-0.2,0.8-0.2,1.2-0.2c-3.7-5.5-8.8-10.1-15.2-13.2
			c-8-3.9-16.7-4.7-24.8-2.9C177.2,92.7,176.6,94.2,176.4,96.7z"/>
		<path fill="#97B1FF" d="M200.5,158c-1-0.9-1.1-2.3-2-3.1c-2.4-2.1-6,1.4-8.5-1c-1.2-1.2-0.2-3-1-4.3c-0.6-0.9-3.4-2-4.5-1.6
			c-1.6,0.6-1.3,2.7-2.6,3.4c-1.9,1.1-7.1-1.8-8.1-3.6c-0.8-1.5-0.2-2.7-1.6-3.8c-1.1-0.9-3.9-1.7-5.2-1.6c-1.2,0.1-2,1.1-3.2,1.3
			c-1.7,0.3-3-0.6-4.6-1.4c-1.2-0.7-1.9-1.1-2.9-2.1c-1.1-1.1-1.8-3.6-3-4.4c-1.9-1.3-4.7-0.3-7-1.1c-0.3-0.1-0.6-0.3-0.9-0.4
			c0.6,4.2,1.9,8.2,3.8,12c0,0,0,0,0,0c2-0.3,2.6-1.1,4.6-0.6c2.9,0.8,3.1,1.8,4,3.9c0.9,2.1,2.9,2.7,4.9,3.7
			c2.4,1.1,2.4,0.3,4.7-0.1c2.9-0.5,4.2,1.9,5.4,4.1c1.5,2.6,3.9,4.2,6.9,3c1.6-0.6,1.7-1.4,3.4-1.2c2,0.2,3.2,2.3,4.3,3.7
			c0.7,1,2.2,2.8,3.7,3.6c4.9-1,9.6-3,13.8-5.9c-0.3-0.5-0.6-0.9-0.9-1.1C203,158.6,201.7,159,200.5,158z"/>
		<path fill="#97B1FF" d="M218.6,139.1c-3.2-0.5-2.6,4.9-5.7,5.5c-4.9,0.9-1.8-4.7-3.8-6.9c-3.4-3.6-9,2.4-13.2-0.3
			c-3.8-2.4-4.9-9.7-10.8-8.9c-2.1,0.3-4.4,2.5-6.4-0.1c-0.8-1-0.3-2.3-1.2-3.3c-0.7-0.9-3.4-1.8-4.5-1.8c-1.1,0-2.1,0.6-3.2,0.7
			c-2.2,0.4-4.5,0-6.6-0.8c-1.9-0.8-3.9-1.4-4.8-3.3c-0.5-1.1,0-2.3-0.9-3.3c-1.8-2-4.9,0.1-7-1.5c-0.7-0.5-1.4-1.4-1.9-2.4
			c-1.4,3-2.4,6.2-2.9,9.3c3.4,1.6,4.1,5.7,7.7,6.8c2.1-2.7,3.6-2.3,6.3-0.7c3.4,2,2.6,5.5,5.4,7.6c3.3,2.5,5.6-1.1,8.7-1.1
			c3.9,0.1,3.9,4.4,6.6,5.8c1.8,0.9,3.3,0.1,5.1,0.5c2,0.5,4.5,2.1,6.2,3c3.5,1.9,6.3,4,10.5,3.7c1.8-0.1,3.2-0.7,4.8,0.1
			c1.8,0.9,2.6,3.4,4.5,4.3c0.7,0.3,1.3,0.4,1.8,0.4c1.7-2.2,3.3-4.6,4.5-7.2c0.9-1.8,1.6-3.7,2.2-5.5
			C219.6,139.4,219.1,139.2,218.6,139.1z"/>
	</g>
	<g>
		<path fill="#95AAED" d="M219.1,123.9c0.3-1.1,0.7-1.9,1.9-2.1c0,0,0.1,0,0.1,0c-0.3-1.8-0.8-3.5-1.3-5.2c0,0,0,0,0,0
			c-0.2-0.7-0.5-1.3-0.7-2c0,0,0,0,0-0.1c-0.1-0.3-0.3-0.6-0.4-0.9c0,0,0,0,0,0c-0.9-0.4-1.8-0.6-2.6-0.4c1.1,4.1,1.5,8.4,1.1,12.8
			C218,125.7,218.8,125,219.1,123.9z"/>
		<path fill="#95AAED" d="M215.2,107.4c-1.4-2.1-3-4-4.7-5.8c0,0,0,0,0,0c-0.1-0.1-0.2-0.2-0.2-0.2c1.5,2,2.7,4.1,3.7,6.3
			c0,0,0.1,0,0.1,0C214.4,107.5,214.8,107.4,215.2,107.4z"/>
		<path fill="#95AAED" d="M149.3,146.2C149.3,146.2,149.4,146.2,149.3,146.2c1.9-0.3,2.5-1,4.1-0.7c-2.6-3.2-4.6-6.8-6-10.6
			c-0.4-0.1-0.7-0.1-1-0.3c-0.3-0.1-0.6-0.3-0.9-0.4c0,0,0,0,0,0.1c0,0.2,0.1,0.4,0.1,0.6c0,0,0,0.1,0,0.1c0,0.2,0.1,0.5,0.1,0.7
			c0,0,0,0,0,0C146.5,139.4,147.7,142.9,149.3,146.2z"/>
		<path fill="#95AAED" d="M197.5,164.3C197.5,164.3,197.6,164.3,197.5,164.3c0.3-0.1,0.6-0.2,0.9-0.4c0,0,0.1,0,0.1,0
			c0.3-0.1,0.5-0.2,0.8-0.3c0,0,0.1,0,0.1,0c0.2-0.1,0.5-0.2,0.7-0.3c0,0,0.1,0,0.1-0.1c0.2-0.1,0.5-0.2,0.7-0.4c0,0,0.1,0,0.1-0.1
			c0.2-0.1,0.5-0.2,0.7-0.4c0,0,0.1-0.1,0.1-0.1c0.2-0.1,0.4-0.3,0.7-0.4c0,0,0.1-0.1,0.1-0.1c0.2-0.1,0.4-0.3,0.7-0.4
			c0,0,0.1-0.1,0.1-0.1c0.2-0.1,0.5-0.3,0.7-0.4c0,0,0.1,0,0.1-0.1c0.3-0.2,0.5-0.3,0.8-0.5c-0.3-0.5-0.6-0.9-0.9-1.1
			c-1.2-0.7-2.5-0.3-3.7-1.2c-1-0.9-1.1-2.3-2-3.1c-0.2-0.1-0.3-0.2-0.5-0.3c-7.4,3.9-16.2,5.2-24.6,3.3c1.5,2.2,3.8,3.4,6.5,2.4
			c1.6-0.6,1.7-1.4,3.4-1.2c2,0.2,3.2,2.3,4.3,3.7c0.7,1,2.2,2.8,3.7,3.6c0.9-0.2,1.8-0.4,2.7-0.7c0,0,0,0,0,0
			c0.3-0.1,0.6-0.2,0.9-0.3c0,0,0,0,0,0c0.3-0.1,0.6-0.2,0.9-0.3c0,0,0,0,0,0c0.3-0.1,0.6-0.2,0.8-0.3c0,0,0,0,0,0
			C197,164.5,197.2,164.4,197.5,164.3z"/>
		<path fill="#95AAED" d="M211.6,152.1c0.7,0.3,1.3,0.4,1.8,0.4c0,0,0,0,0,0c0.2-0.3,0.4-0.5,0.6-0.8c0,0,0.1-0.1,0.1-0.1
			c0.2-0.2,0.3-0.5,0.5-0.7c0-0.1,0.1-0.1,0.1-0.2c0.2-0.2,0.3-0.4,0.5-0.7c0.1-0.1,0.1-0.2,0.2-0.2c0.1-0.2,0.3-0.4,0.4-0.6
			c0.1-0.1,0.1-0.2,0.2-0.3c0.1-0.2,0.2-0.4,0.4-0.6c0.1-0.1,0.1-0.2,0.2-0.3c0.1-0.2,0.2-0.4,0.3-0.6c0.1-0.1,0.1-0.2,0.2-0.3
			c0.1-0.2,0.2-0.4,0.3-0.6c0-0.1,0.1-0.2,0.1-0.3c0.2-0.3,0.3-0.6,0.5-0.9c0.1-0.2,0.2-0.5,0.3-0.7c0-0.1,0.1-0.2,0.1-0.3
			c0.1-0.1,0.1-0.3,0.2-0.4c0.1-0.1,0.1-0.3,0.2-0.4c0-0.1,0.1-0.2,0.1-0.3c0.1-0.2,0.1-0.3,0.2-0.5c0-0.1,0.1-0.1,0.1-0.2
			c0.1-0.2,0.1-0.3,0.2-0.5c0-0.1,0-0.1,0.1-0.2c0.1-0.2,0.1-0.4,0.2-0.6c0,0,0-0.1,0.1-0.1c0.1-0.2,0.1-0.4,0.2-0.6
			c0,0,0-0.1,0-0.1c0.1-0.2,0.1-0.4,0.2-0.6c0,0,0-0.1,0-0.1c-0.4-0.3-0.9-0.5-1.5-0.6c-3.2-0.5-2.6,4.9-5.7,5.5
			c-1.4,0.3-2.2,0-2.6-0.7c-1,1.4-2.1,2.7-3.3,3.9c0,0,0,0,0.1,0C208.9,148.8,209.7,151.2,211.6,152.1z"/>
	</g>
</g>
<g>
	<circle fill="#FFC5D3" cx="435" cy="167.2" r="19.6"/>
	<g>
		<path fill="#F7B3E3" d="M448.6,153.2c3.9,5.3,4.8,12.5,1.8,18.9c-4.4,9.1-15.4,13-24.5,8.6c-6.4-3-10.1-9.3-10.4-15.9
			c-1,8.1,3.2,16.3,11,20c9.7,4.7,21.4,0.6,26.1-9.2C456.3,167.9,454.5,158.9,448.6,153.2z"/>
	</g>
	<g>
		<path fill="#E599FF" d="M424.7,153.1c0.1,0.9-0.2,1.6,0.2,2.4c0.8,1.6,1.2,0.1,2.5,0.1c1.8,0.1,1.4,2.5,1.9,3.7
			c0.8,2,3.4,3.6,5.5,2.9c1-0.3,1.3-0.7,2.3,0c1,0.7,0.6,1,1.1,2.1c1,1.8,1.8,0.6,3,0.4c1.3-0.2,1.6,0.9,1.8,2
			c0.1,0.9-0.1,1.2,1,1.8c0.6,0.4,1.3,0.3,2,0.3c1,0,1.7-0.8,1.7-1.8c0-0.3,0-0.7,0.2-1c0.5-0.9,2.1-0.8,3.4-0.3
			c0.8,0.3,1.7-0.2,1.9-1c0.1-0.5,0.4-1,1-1.1c0,0,0,0,0.1,0c-0.3-1.4-0.7-2.9-1.3-4.2c-0.6-0.2-1.2-0.4-1.7,0
			c-1,0.8,0.8,2.9-0.9,2.6c-1-0.2-0.9-1.1-2.3-0.5c-0.6,0.3-1.1,0.9-1.6,1.1c-2.3,0.8-1.8-2-3.2-2.7c-0.8-0.4-2.2,0.3-2.8-0.1
			c-0.4-0.3-0.3-1.3-0.9-1.6c-0.4-0.2-1-0.1-1.5,0c-0.6,0.2-1.1,0.8-1.6,1c-0.8,0.2-2.4-0.5-3-1.2c-0.9-1,0.1-2-0.9-2.8
			c-0.5-0.4-1.2-0.2-1.7-0.6c-0.6-0.5-0.2-1.3-0.7-1.8c-0.8-0.7-2.8-0.2-2.3-1.7c0.1-0.3,0.7-0.4,0.9-0.9c0.1-0.4,0.1-0.7-0.1-1
			c-0.1-0.2-0.3-0.3-0.5-0.4c-1.6,0.6-3,1.4-4.4,2.3C424.3,151.4,424.6,152,424.7,153.1z"/>
		<path fill="#E599FF" d="M431.4,150.8c-0.1,1.2,0.9,2.1,2,1.9c0.7-0.1,0.8-0.7,1.6-0.7c0.5,0,0.8,0.4,1.1,0.6
			c0.9,0.7,1.9,2.2,2.8,0.7c-0.2-0.4-0.4-1.5,0.2-1.9c0.9-0.5,1.3,0.7,1.6,1.2c0.6,1.1,1.5,1.9,3,1.6c0.4-0.1,0.8-0.5,1.3-0.5
			c0.6,0.1,1.5,0.8,1.8,1.4c0.4,0.9,0.1,4.1,2.2,3.2c0.9-0.4,0.7-1.6,1.7-2c0.2-0.1,0.4-0.1,0.6-0.1c-1.9-2.8-4.5-5.2-7.8-6.7
			c-4.1-2-8.6-2.4-12.7-1.5C431.8,148.8,431.5,149.5,431.4,150.8z"/>
		<path fill="#E599FF" d="M443.7,182.1c-0.5-0.4-0.6-1.2-1-1.6c-1.2-1.1-3.1,0.7-4.4-0.5c-0.6-0.6-0.1-1.5-0.5-2.2
			c-0.3-0.5-1.7-1-2.3-0.8c-0.8,0.3-0.7,1.4-1.3,1.8c-1,0.5-3.6-0.9-4.1-1.8c-0.4-0.8-0.1-1.4-0.8-2c-0.6-0.5-2-0.9-2.7-0.8
			c-0.6,0.1-1,0.6-1.6,0.7c-0.9,0.1-1.5-0.3-2.3-0.7c-0.6-0.3-1-0.5-1.5-1.1c-0.5-0.6-0.9-1.9-1.5-2.3c-1-0.7-2.4-0.1-3.6-0.6
			c-0.2-0.1-0.3-0.1-0.5-0.2c0.3,2.1,1,4.2,1.9,6.1c0,0,0,0,0,0c1-0.2,1.3-0.6,2.4-0.3c1.5,0.4,1.6,0.9,2,2c0.5,1.1,1.5,1.4,2.5,1.9
			c1.2,0.6,1.2,0.1,2.4-0.1c1.5-0.2,2.1,1,2.8,2.1c0.8,1.4,2,2.1,3.5,1.5c0.8-0.3,0.9-0.7,1.7-0.6c1,0.1,1.6,1.2,2.2,1.9
			c0.4,0.5,1.1,1.4,1.9,1.8c2.5-0.5,4.9-1.6,7-3c-0.2-0.3-0.3-0.5-0.4-0.5C445,182.4,444.3,182.6,443.7,182.1z"/>
		<path fill="#E599FF" d="M452.9,172.5c-1.6-0.3-1.3,2.5-2.9,2.8c-2.5,0.5-0.9-2.4-2-3.5c-1.7-1.8-4.6,1.2-6.8-0.1
			c-1.9-1.2-2.5-5-5.5-4.6c-1.1,0.1-2.2,1.3-3.3-0.1c-0.4-0.5-0.2-1.2-0.6-1.7c-0.4-0.5-1.7-0.9-2.3-0.9c-0.5,0-1.1,0.3-1.6,0.4
			c-1.1,0.2-2.3,0-3.4-0.4c-1-0.4-2-0.7-2.5-1.7c-0.3-0.6,0-1.2-0.5-1.7c-0.9-1-2.5,0.1-3.6-0.8c-0.4-0.3-0.7-0.7-1-1.2
			c-0.7,1.6-1.2,3.1-1.5,4.8c1.7,0.8,2.1,2.9,3.9,3.5c1.1-1.4,1.8-1.2,3.2-0.4c1.7,1,1.3,2.8,2.8,3.9c1.7,1.3,2.8-0.6,4.4-0.6
			c2,0,2,2.2,3.4,3c0.9,0.5,1.7,0.1,2.6,0.3c1,0.2,2.3,1,3.2,1.6c1.8,1,3.2,2,5.4,1.9c0.9,0,1.6-0.4,2.5,0c0.9,0.5,1.3,1.7,2.3,2.2
			c0.3,0.2,0.6,0.2,0.9,0.2c0.9-1.1,1.7-2.4,2.3-3.7c0.4-0.9,0.8-1.9,1.1-2.8C453.5,172.7,453.2,172.6,452.9,172.5z"/>
	</g>
	<g>
		<path fill="#D997ED" d="M453.2,164.7c0.1-0.5,0.4-1,1-1.1c0,0,0,0,0.1,0c-0.2-0.9-0.4-1.8-0.7-2.7c0,0,0,0,0,0
			c-0.1-0.3-0.2-0.7-0.4-1c0,0,0,0,0,0c-0.1-0.2-0.1-0.3-0.2-0.5c0,0,0,0,0,0c-0.5-0.2-0.9-0.3-1.3-0.2c0.6,2.1,0.8,4.3,0.6,6.5
			C452.7,165.7,453.1,165.3,453.2,164.7z"/>
		<path fill="#D997ED" d="M451.2,156.3c-0.7-1.1-1.5-2-2.4-3c0,0,0,0,0,0c0,0-0.1-0.1-0.1-0.1c0.7,1,1.4,2.1,1.9,3.2c0,0,0,0,0.1,0
			C450.8,156.3,451,156.3,451.2,156.3z"/>
		<path fill="#D997ED" d="M417.5,176.1C417.5,176.1,417.6,176.1,417.5,176.1c1-0.1,1.3-0.5,2.1-0.4c-1.3-1.6-2.4-3.5-3.1-5.4
			c-0.2,0-0.4-0.1-0.5-0.1c-0.2-0.1-0.3-0.1-0.5-0.2c0,0,0,0,0,0c0,0.1,0,0.2,0.1,0.3c0,0,0,0,0,0.1c0,0.1,0,0.2,0.1,0.4
			c0,0,0,0,0,0C416.1,172.6,416.7,174.4,417.5,176.1z"/>
		<path fill="#D997ED" d="M442.2,185.4C442.2,185.4,442.2,185.4,442.2,185.4c0.2-0.1,0.3-0.1,0.4-0.2c0,0,0,0,0,0
			c0.1-0.1,0.3-0.1,0.4-0.2c0,0,0,0,0.1,0c0.1-0.1,0.2-0.1,0.4-0.2c0,0,0,0,0.1,0c0.1-0.1,0.2-0.1,0.4-0.2c0,0,0,0,0.1,0
			c0.1-0.1,0.2-0.1,0.4-0.2c0,0,0,0,0.1,0c0.1-0.1,0.2-0.1,0.3-0.2c0,0,0.1,0,0.1,0c0.1-0.1,0.2-0.1,0.3-0.2c0,0,0,0,0.1,0
			c0.1-0.1,0.2-0.1,0.4-0.2c0,0,0,0,0,0c0.1-0.1,0.3-0.2,0.4-0.3c-0.2-0.3-0.3-0.5-0.4-0.5c-0.6-0.3-1.3-0.1-1.9-0.6
			c-0.5-0.4-0.6-1.2-1-1.6c-0.1-0.1-0.2-0.1-0.2-0.2c-3.8,2-8.3,2.6-12.6,1.7c0.8,1.1,1.9,1.8,3.3,1.2c0.8-0.3,0.9-0.7,1.7-0.6
			c1,0.1,1.6,1.2,2.2,1.9c0.4,0.5,1.1,1.4,1.9,1.8c0.5-0.1,0.9-0.2,1.4-0.3c0,0,0,0,0,0c0.2,0,0.3-0.1,0.5-0.1c0,0,0,0,0,0
			c0.1,0,0.3-0.1,0.4-0.1c0,0,0,0,0,0c0.1,0,0.3-0.1,0.4-0.2c0,0,0,0,0,0C441.9,185.5,442,185.4,442.2,185.4z"/>
		<path fill="#D997ED" d="M449.4,179.2c0.3,0.2,0.6,0.2,0.9,0.2c0,0,0,0,0,0c0.1-0.1,0.2-0.3,0.3-0.4c0,0,0,0,0-0.1
			c0.1-0.1,0.2-0.2,0.3-0.4c0,0,0-0.1,0.1-0.1c0.1-0.1,0.2-0.2,0.2-0.3c0,0,0.1-0.1,0.1-0.1c0.1-0.1,0.1-0.2,0.2-0.3
			c0,0,0.1-0.1,0.1-0.1c0.1-0.1,0.1-0.2,0.2-0.3c0,0,0.1-0.1,0.1-0.1c0.1-0.1,0.1-0.2,0.2-0.3c0-0.1,0.1-0.1,0.1-0.2
			c0.1-0.1,0.1-0.2,0.2-0.3c0,0,0-0.1,0.1-0.1c0.1-0.2,0.2-0.3,0.2-0.5c0.1-0.1,0.1-0.2,0.2-0.4c0-0.1,0-0.1,0.1-0.2
			c0-0.1,0.1-0.1,0.1-0.2c0-0.1,0.1-0.1,0.1-0.2c0,0,0-0.1,0.1-0.1c0-0.1,0.1-0.2,0.1-0.2c0,0,0-0.1,0-0.1c0-0.1,0.1-0.2,0.1-0.3
			c0,0,0-0.1,0-0.1c0-0.1,0.1-0.2,0.1-0.3c0,0,0,0,0-0.1c0-0.1,0.1-0.2,0.1-0.3c0,0,0,0,0-0.1c0-0.1,0.1-0.2,0.1-0.3c0,0,0,0,0,0
			c-0.2-0.2-0.5-0.3-0.8-0.3c-1.6-0.3-1.3,2.5-2.9,2.8c-0.7,0.1-1.1,0-1.3-0.3c-0.5,0.7-1.1,1.4-1.7,2c0,0,0,0,0,0
			C448,177.4,448.4,178.7,449.4,179.2z"/>
	</g>
</g>
<g>
	<path fill="#FFCA39" d="M326.2,125.8l7.5,10.3c0.5,0.7,1.7,0.3,1.6-0.6l-1.1-12.4L326.2,125.8z"/>
	<path fill="#FFCA39" d="M285,125.8l-7.5,10.3c-0.5,0.7-1.7,0.3-1.6-0.6l1.1-12.4L285,125.8z"/>
	<path fill="#FFCA39" d="M303.9,128.6l4,12.2c0.3,0.8,1.5,0.8,1.7-0.1l2.8-12.1L303.9,128.6z"/>
	<g>
		<ellipse fill="#23AEB8" cx="305.6" cy="120.7" rx="41.1" ry="9.9"/>
		<ellipse fill="#169DA9" cx="305.6" cy="115.6" rx="24.2" ry="5.9"/>
		<g>
			<path fill="#169DA9" d="M265.2,122.5c3.5,4.6,20.3,8.2,40.5,8.2c20.2,0,37-3.5,40.5-8.2c-8.2,2.5-23.2,4.2-40.5,4.2
				C288.4,126.7,273.3,125,265.2,122.5z"/>
		</g>
		<path fill="#FFCA39" d="M310.7,99.2h-10.1c-8.6,0-15.6,7-15.6,15.6v0c0,2.7,9.2,5,20.6,5c11.4,0,20.6-2.2,20.6-5v0
			C326.2,106.2,319.3,99.2,310.7,99.2z"/>
	</g>
</g>
</svg>
